<svg version="1" xmlns="http://www.w3.org/2000/svg" width="301.333" height="301.333" viewBox="0 0 226.000000 226.000000"><path d="M109.5.9c-.9.8-23.7 13.9-75.2 43.5L13 56.5v113l18.3 10.4c30.2 17.3 57.6 33.1 68.9 39.7l10.8 6.3 28.7-16.6c15.9-9.1 37.9-21.7 49.1-28.1l20.2-11.6V56.4l-20.2-11.6c-11.2-6.4-33.3-19.1-49.2-28.2C123.8 7.5 110.7 0 110.6 0c-.1 0-.6.4-1.1.9zm22.8 31.7c11.1 6.4 29.1 16.8 40 23.1L192 67.2v91.6l-19.7 11.5C126.5 196.8 112 205 111.1 205c-.6 0-9-4.6-18.8-10.3-9.8-5.7-27.6-15.9-39.5-22.8l-21.7-12.4v-93L51.2 55c11-6.3 28.7-16.5 39.2-22.7 10.5-6.1 19.7-11.2 20.4-11.2.7-.1 10.4 5.1 21.5 11.5z"/><path d="M158 61.5c-2.5.7-6.4 1.9-8.8 2.5l-4.2 1.1 2.5 3.3 2.5 3.3-16.1 15.7-16.1 15.7-4.3-.6c-3-.5-5.2-.2-7.4.9-4.9 2.6-7.6 9.7-5.1 13.6.7 1.2-3.6 6.1-20.2 22.7-15.1 15.1-20.9 21.6-20.5 22.7.4.9 1.2 1.6 1.9 1.6s10.7-9.4 22.2-20.9c19.2-19.2 21.1-20.8 23.2-19.9 3.2 1.5 8.7.2 11.5-2.8 2-2.1 2.4-3.6 2.4-8.5V106L137 90.5C145.5 82 152.9 75 153.4 75c.5 0 2 1 3.3 2.1 1.7 1.7 2.4 1.9 2.7.8.7-2.1 4.6-16.9 4.6-17.4 0-.7-.9-.6-6 1z"/></svg>